<svg xmlns="http://www.w3.org/2000/svg" viewBox="1086.937 634.417 120.147 114.567">
  <defs>
    <style>
      .cls-1 {
        fill: #ed1c40;
      }

      .cls-2 {
        fill: #fff;
      }
    </style>
  </defs>
  <g id="Group_5" data-name="Group 5" transform="translate(1086.937 634.417)">
    <path id="Path_8" data-name="Path 8" class="cls-1" d="M85.817,99.6a5.24,5.24,0,1,0,7.3,1.331,5.23,5.23,0,0,0-7.3-1.331M55.21,108.747a3.23,3.23,0,1,0,4.491.832,3.236,3.236,0,0,0-4.491-.832M18.042,93.721a2.335,2.335,0,1,0,1.793-2.772,2.324,2.324,0,0,0-1.793,2.772M9.078,57.735A5.006,5.006,0,1,0,2.11,59.029a4.992,4.992,0,0,0,6.968-1.294m17.115-32.27a3.8,3.8,0,1,0-5.286-.961,3.8,3.8,0,0,0,5.286.961M37.522,2.159a2.657,2.657,0,1,0-2.033,3.16,2.647,2.647,0,0,0,2.033-3.16M71.438,5.67a4.965,4.965,0,1,0-1.7,6.8,4.978,4.978,0,0,0,1.7-6.8M95.816,41.156A22.317,22.317,0,0,0,65.93,18.479,25.2,25.2,0,0,0,28.669,30.7a16.714,16.714,0,0,0-12.014,25.6,18.08,18.08,0,0,0,9.315,31.272A19.489,19.489,0,0,0,56.559,103.11c.333-.24.591-.536.924-.776A14.516,14.516,0,0,0,81.363,95.07a21.16,21.16,0,0,0,12.938-3.7,21.4,21.4,0,0,0,5.951-28.98,12.257,12.257,0,0,0-4.436-21.236m10.683-3.05a4.225,4.225,0,1,0-5.877-1.072,4.218,4.218,0,0,0,5.877,1.072m8.206,24.748a3.137,3.137,0,1,0-2.4,3.733,3.158,3.158,0,0,0,2.4-3.733M120.028,47.7a2.335,2.335,0,1,0-1.774,2.772,2.338,2.338,0,0,0,1.774-2.772" transform="translate(0.064 -0.063)"/>
    <path id="Path_9" data-name="Path 9" class="cls-2" d="M204.177,235.441c-.721-4.621-9.278-1.053-9.8-6.118-.739-7.171,9.925-22.641,9.075-28.648-.758-5.4-4.4-6.543-7.578-6.6-3.087-.055-3.9.444-4.935,1.035a1.857,1.857,0,0,1-2.661-.092c-.795-.758-1.331-1.294-2.162-1.959a4.381,4.381,0,0,0-2.255-.943,7.36,7.36,0,0,0-3.567.407,9.642,9.642,0,0,0-2.458,1.793c-.776.665-2.735,2.865-4.565,2.07-.795-.351-3.493-1.7-5.434-2.532-3.752-1.626-9.149,1-11.108,4.473-2.9,5.138-8.613,25.358-9.481,28.038-1.941,5.988,2.458,10.868,8.391,10.59,2.514-.111,4.177-1.035,5.767-3.918.924-1.663,9.518-24.138,10.165-25.229a2.814,2.814,0,0,1,3.327-1.146,3.052,3.052,0,0,1,1.386,3.4c-.314,2.144-6.395,15.858-6.617,17.41-.388,2.643.85,4.1,3.6,4.251,1.885.092,3.752-.573,5.231-3.382.832-1.571,10.406-20.737,11.256-22.013.924-1.4,1.682-1.867,2.625-1.811.739.037,1.922.222,1.626,2.421-.3,2.162-7.984,16.228-8.8,19.665a10.206,10.206,0,0,0,5.619,11.311c2.661,1.275,14.287,3.512,13.344-2.477" transform="translate(-119.645 -156.57)"/>
  </g>
</svg>
